<svg xmlns="http://www.w3.org/2000/svg" viewBox="-12.00 -12.00 774.00 283.81">
<title>splax</title>
<polygon points="300.00,43.30 325.00,0.00 350.00,43.30 325.00,86.60" fill="#00796b" stroke="#dce0df" stroke-width="1.0" stroke-linejoin="round"/>
<polygon points="250.00,129.90 275.00,86.60 300.00,129.90 275.00,173.21" fill="#00796b" stroke="#dce0df" stroke-width="1.0" stroke-linejoin="round"/>
<polygon points="325.00,86.60 350.00,43.30 375.00,86.60 350.00,129.90" fill="#00796b" stroke="#dce0df" stroke-width="1.0" stroke-linejoin="round"/>
<polygon points="350.00,129.90 375.00,86.60 400.00,129.90 375.00,173.21" fill="#9c27b0" stroke="#dce0df" stroke-width="1.0" stroke-linejoin="round"/>
<polygon points="100.00,43.30 150.00,43.30 175.00,0.00 125.00,0.00" fill="#5e97f6" stroke="#dce0df" stroke-width="1.0" stroke-linejoin="round"/>
<polygon points="150.00,43.30 200.00,43.30 225.00,0.00 175.00,0.00" fill="#5e97f6" stroke="#dce0df" stroke-width="1.0" stroke-linejoin="round"/>
<polygon points="150.00,43.30 200.00,43.30 225.00,86.60 175.00,86.60" fill="#2a56c6" stroke="#dce0df" stroke-width="1.0" stroke-linejoin="round"/>
<polygon points="200.00,43.30 250.00,43.30 275.00,0.00 225.00,0.00" fill="#5e97f6" stroke="#dce0df" stroke-width="1.0" stroke-linejoin="round"/>
<polygon points="200.00,43.30 250.00,43.30 275.00,86.60 225.00,86.60" fill="#2a56c6" stroke="#dce0df" stroke-width="1.0" stroke-linejoin="round"/>
<polygon points="250.00,43.30 300.00,43.30 325.00,0.00 275.00,0.00" fill="#5e97f6" stroke="#dce0df" stroke-width="1.0" stroke-linejoin="round"/>
<polygon points="250.00,43.30 300.00,43.30 325.00,86.60 275.00,86.60" fill="#2a56c6" stroke="#dce0df" stroke-width="1.0" stroke-linejoin="round"/>
<polygon points="75.00,86.60 125.00,86.60 150.00,43.30 100.00,43.30" fill="#5e97f6" stroke="#dce0df" stroke-width="1.0" stroke-linejoin="round"/>
<polygon points="50.00,129.90 100.00,129.90 125.00,86.60 75.00,86.60" fill="#5e97f6" stroke="#dce0df" stroke-width="1.0" stroke-linejoin="round"/>
<polygon points="50.00,129.90 100.00,129.90 125.00,173.21 75.00,173.21" fill="#2a56c6" stroke="#dce0df" stroke-width="1.0" stroke-linejoin="round"/>
<polygon points="100.00,129.90 150.00,129.90 175.00,86.60 125.00,86.60" fill="#5e97f6" stroke="#dce0df" stroke-width="1.0" stroke-linejoin="round"/>
<polygon points="100.00,129.90 150.00,129.90 175.00,173.21 125.00,173.21" fill="#2a56c6" stroke="#dce0df" stroke-width="1.0" stroke-linejoin="round"/>
<polygon points="150.00,129.90 200.00,129.90 225.00,86.60 175.00,86.60" fill="#5e97f6" stroke="#dce0df" stroke-width="1.0" stroke-linejoin="round"/>
<polygon points="150.00,129.90 200.00,129.90 225.00,173.21 175.00,173.21" fill="#2a56c6" stroke="#dce0df" stroke-width="1.0" stroke-linejoin="round"/>
<polygon points="200.00,129.90 250.00,129.90 275.00,86.60 225.00,86.60" fill="#5e97f6" stroke="#dce0df" stroke-width="1.0" stroke-linejoin="round"/>
<polygon points="175.00,173.21 225.00,173.21 250.00,129.90 200.00,129.90" fill="#5e97f6" stroke="#dce0df" stroke-width="1.0" stroke-linejoin="round"/>
<polygon points="0.00,216.51 50.00,216.51 75.00,173.21 25.00,173.21" fill="#5e97f6" stroke="#dce0df" stroke-width="1.0" stroke-linejoin="round"/>
<polygon points="0.00,216.51 50.00,216.51 75.00,259.81 25.00,259.81" fill="#2a56c6" stroke="#dce0df" stroke-width="1.0" stroke-linejoin="round"/>
<polygon points="50.00,216.51 100.00,216.51 125.00,173.21 75.00,173.21" fill="#5e97f6" stroke="#dce0df" stroke-width="1.0" stroke-linejoin="round"/>
<polygon points="50.00,216.51 100.00,216.51 125.00,259.81 75.00,259.81" fill="#2a56c6" stroke="#dce0df" stroke-width="1.0" stroke-linejoin="round"/>
<polygon points="100.00,216.51 150.00,216.51 175.00,173.21 125.00,173.21" fill="#5e97f6" stroke="#dce0df" stroke-width="1.0" stroke-linejoin="round"/>
<polygon points="100.00,216.51 150.00,216.51 175.00,259.81 125.00,259.81" fill="#2a56c6" stroke="#dce0df" stroke-width="1.0" stroke-linejoin="round"/>
<polygon points="150.00,216.51 200.00,216.51 225.00,173.21 175.00,173.21" fill="#5e97f6" stroke="#dce0df" stroke-width="1.0" stroke-linejoin="round"/>
<polygon points="150.00,216.51 200.00,216.51 225.00,259.81 175.00,259.81" fill="#2a56c6" stroke="#dce0df" stroke-width="1.0" stroke-linejoin="round"/>
<polygon points="225.00,173.21 250.00,129.90 275.00,173.21 250.00,216.51" fill="#00796b" stroke="#dce0df" stroke-width="1.0" stroke-linejoin="round"/>
<polygon points="200.00,216.51 225.00,173.21 250.00,216.51 225.00,259.81" fill="#00796b" stroke="#dce0df" stroke-width="1.0" stroke-linejoin="round"/>
<polygon points="450.00,216.51 475.00,173.21 500.00,216.51 475.00,259.81" fill="#00796b" stroke="#dce0df" stroke-width="1.0" stroke-linejoin="round"/>
<polygon points="525.00,86.60 550.00,43.30 575.00,86.60 550.00,129.90" fill="#00796b" stroke="#dce0df" stroke-width="1.0" stroke-linejoin="round"/>
<polygon points="475.00,173.21 525.00,173.21 550.00,129.90 500.00,129.90" fill="#26a69a" stroke="#dce0df" stroke-width="1.0" stroke-linejoin="round"/>
<polygon points="525.00,173.21 575.00,173.21 600.00,129.90 550.00,129.90" fill="#26a69a" stroke="#dce0df" stroke-width="1.0" stroke-linejoin="round"/>
<polygon points="600.00,43.30 625.00,0.00 650.00,43.30 625.00,86.60" fill="#3367d6" stroke="#dce0df" stroke-width="1.0" stroke-linejoin="round"/>
<polygon points="625.00,86.60 650.00,43.30 675.00,86.60 650.00,129.90" fill="#3367d6" stroke="#dce0df" stroke-width="1.0" stroke-linejoin="round"/>
<polygon points="650.00,129.90 675.00,86.60 700.00,129.90 675.00,173.21" fill="#3367d6" stroke="#dce0df" stroke-width="1.0" stroke-linejoin="round"/>
<polygon points="675.00,173.21 700.00,129.90 725.00,173.21 700.00,216.51" fill="#3367d6" stroke="#dce0df" stroke-width="1.0" stroke-linejoin="round"/>
<polygon points="700.00,216.51 725.00,173.21 750.00,216.51 725.00,259.81" fill="#3367d6" stroke="#dce0df" stroke-width="1.0" stroke-linejoin="round"/>
<polygon points="700.00,43.30 725.00,0.00 750.00,43.30 725.00,86.60" fill="#3367d6" stroke="#dce0df" stroke-width="1.0" stroke-linejoin="round"/>
<polygon points="675.00,86.60 700.00,43.30 725.00,86.60 700.00,129.90" fill="#3367d6" stroke="#dce0df" stroke-width="1.0" stroke-linejoin="round"/>
<polygon points="625.00,173.21 650.00,129.90 675.00,173.21 650.00,216.51" fill="#3367d6" stroke="#dce0df" stroke-width="1.0" stroke-linejoin="round"/>
<polygon points="600.00,216.51 625.00,173.21 650.00,216.51 625.00,259.81" fill="#3367d6" stroke="#dce0df" stroke-width="1.0" stroke-linejoin="round"/>
<polygon points="550.00,216.51 600.00,216.51 625.00,259.81 575.00,259.81" fill="#2a56c6" stroke="#dce0df" stroke-width="1.0" stroke-linejoin="round"/>
<polygon points="475.00,173.21 525.00,173.21 550.00,216.51 500.00,216.51" fill="#00695c" stroke="#dce0df" stroke-width="1.0" stroke-linejoin="round"/>
<polygon points="575.00,86.60 625.00,86.60 650.00,129.90 600.00,129.90" fill="#00695c" stroke="#dce0df" stroke-width="1.0" stroke-linejoin="round"/>
<polygon points="550.00,43.30 600.00,43.30 625.00,86.60 575.00,86.60" fill="#00695c" stroke="#dce0df" stroke-width="1.0" stroke-linejoin="round"/>
<polygon points="650.00,216.51 700.00,216.51 725.00,259.81 675.00,259.81" fill="#00695c" stroke="#dce0df" stroke-width="1.0" stroke-linejoin="round"/>
<polygon points="550.00,43.30 600.00,43.30 625.00,0.00 575.00,0.00" fill="#5e97f6" stroke="#dce0df" stroke-width="1.0" stroke-linejoin="round"/>
<polygon points="550.00,216.51 600.00,216.51 625.00,173.21 575.00,173.21" fill="#5e97f6" stroke="#dce0df" stroke-width="1.0" stroke-linejoin="round"/>
<polygon points="575.00,173.21 625.00,173.21 650.00,129.90 600.00,129.90" fill="#5e97f6" stroke="#dce0df" stroke-width="1.0" stroke-linejoin="round"/>
<polygon points="650.00,43.30 700.00,43.30 725.00,0.00 675.00,0.00" fill="#5e97f6" stroke="#dce0df" stroke-width="1.0" stroke-linejoin="round"/>
<polygon points="125.00,86.60 175.00,86.60 150.00,43.30" fill="#2a56c6" stroke="#dce0df" stroke-width="1.0" stroke-linejoin="round"/>
<polygon points="225.00,86.60 275.00,86.60 300.00,43.30 250.00,43.30" fill="#26a69a" stroke="#dce0df" stroke-width="1.0" stroke-linejoin="round"/>
<polygon points="275.00,86.60 300.00,43.30 325.00,86.60 300.00,129.90" fill="#00796b" stroke="#dce0df" stroke-width="1.0" stroke-linejoin="round"/>
<polygon points="325.00,173.21 350.00,129.90 375.00,173.21 350.00,216.51" fill="#00796b" stroke="#dce0df" stroke-width="1.0" stroke-linejoin="round"/>
<polygon points="300.00,216.51 325.00,173.21 350.00,216.51 325.00,259.81" fill="#00796b" stroke="#dce0df" stroke-width="1.0" stroke-linejoin="round"/>
<polygon points="275.00,173.21 300.00,129.90 325.00,173.21 300.00,216.51" fill="#00796b" stroke="#dce0df" stroke-width="1.0" stroke-linejoin="round"/>
<polygon points="275.00,173.21 300.00,216.51 250.00,216.51" fill="#00695c" stroke="#dce0df" stroke-width="1.0" stroke-linejoin="round"/>
<polygon points="250.00,216.51 300.00,216.51 325.00,259.81 275.00,259.81" fill="#00695c" stroke="#dce0df" stroke-width="1.0" stroke-linejoin="round"/>
<polygon points="300.00,129.90 350.00,129.90 325.00,173.21" fill="#26a69a" stroke="#dce0df" stroke-width="1.0" stroke-linejoin="round"/>
<polygon points="300.00,129.90 350.00,129.90 325.00,86.60" fill="#00695c" stroke="#dce0df" stroke-width="1.0" stroke-linejoin="round"/>
<polygon points="300.00,216.51 350.00,216.51 375.00,173.21 325.00,173.21" fill="#ea80fc" stroke="#dce0df" stroke-width="1.0" stroke-linejoin="round"/>
<polygon points="350.00,216.51 400.00,216.51 425.00,173.21 375.00,173.21" fill="#ea80fc" stroke="#dce0df" stroke-width="1.0" stroke-linejoin="round"/>
<polygon points="300.00,216.51 350.00,216.51 375.00,259.81 325.00,259.81" fill="#6a1b9a" stroke="#dce0df" stroke-width="1.0" stroke-linejoin="round"/>
<polygon points="350.00,216.51 400.00,216.51 425.00,259.81 375.00,259.81" fill="#6a1b9a" stroke="#dce0df" stroke-width="1.0" stroke-linejoin="round"/>
<polygon points="325.00,173.21 375.00,173.21 350.00,129.90" fill="#9c27b0" stroke="#dce0df" stroke-width="1.0" stroke-linejoin="round"/>
<polygon points="425.00,173.21 475.00,173.21 500.00,129.90 450.00,129.90" fill="#26a69a" stroke="#dce0df" stroke-width="1.0" stroke-linejoin="round"/>
<polygon points="450.00,129.90 500.00,129.90 525.00,86.60 475.00,86.60" fill="#26a69a" stroke="#dce0df" stroke-width="1.0" stroke-linejoin="round"/>
<polygon points="475.00,86.60 525.00,86.60 550.00,43.30 500.00,43.30" fill="#26a69a" stroke="#dce0df" stroke-width="1.0" stroke-linejoin="round"/>
<polygon points="500.00,43.30 550.00,43.30 575.00,0.00 525.00,0.00" fill="#26a69a" stroke="#dce0df" stroke-width="1.0" stroke-linejoin="round"/>
<polygon points="400.00,216.51 450.00,216.51 475.00,173.21 425.00,173.21" fill="#ea80fc" stroke="#dce0df" stroke-width="1.0" stroke-linejoin="round"/>
<polygon points="400.00,216.51 450.00,216.51 475.00,259.81 425.00,259.81" fill="#6a1b9a" stroke="#dce0df" stroke-width="1.0" stroke-linejoin="round"/>
<polygon points="500.00,129.90 550.00,129.90 525.00,86.60" fill="#00796b" stroke="#dce0df" stroke-width="1.0" stroke-linejoin="round"/>
<polygon points="525.00,173.21 575.00,173.21 550.00,216.51" fill="#00695c" stroke="#dce0df" stroke-width="1.0" stroke-linejoin="round"/>
<polygon points="675.00,173.21 700.00,216.51 650.00,216.51" fill="#00695c" stroke="#dce0df" stroke-width="1.0" stroke-linejoin="round"/>
<polygon points="675.00,86.60 700.00,43.30 650.00,43.30" fill="#ea80fc" stroke="#dce0df" stroke-width="1.0" stroke-linejoin="round"/>
<polygon points="375.00,86.60 400.00,43.30 425.00,86.60 400.00,129.90" fill="#9c27b0" stroke="#dce0df" stroke-width="1.0" stroke-linejoin="round"/>
<polygon points="350.00,43.30 400.00,43.30 375.00,86.60" fill="#ea80fc" stroke="#dce0df" stroke-width="1.0" stroke-linejoin="round"/>
<polygon points="350.00,43.30 400.00,43.30 425.00,0.00 375.00,0.00" fill="#ea80fc" stroke="#dce0df" stroke-width="1.0" stroke-linejoin="round"/>
<polygon points="400.00,43.30 425.00,0.00 450.00,43.30 425.00,86.60" fill="#9c27b0" stroke="#dce0df" stroke-width="1.0" stroke-linejoin="round"/>
<polygon points="650.00,43.30 700.00,43.30 675.00,86.60" fill="#5e97f6" stroke="#dce0df" stroke-width="1.0" stroke-linejoin="round"/>
</svg>
